<svg data-v-423bf9ae="" xmlns="http://www.w3.org/2000/svg" viewBox="0 0 525.4506786641356 60" class="font"><!----><!----><!----><g data-v-423bf9ae="" id="79987232-97e4-4df2-93c1-d44a4c2c9a43" fill="black" transform="matrix(6.437768451142813,0,0,6.437768451142813,-4.377684240736869,-23.884120245646898)"><path d="M5.39 3.74L5.39 3.74L5.39 3.74Q6.51 3.74 7.39 4.09L7.39 4.09L7.39 4.09Q8.26 4.45 8.86 5.08L8.86 5.08L8.86 5.08Q9.45 5.70 9.77 6.55L9.77 6.55L9.77 6.55Q10.08 7.40 10.08 8.37L10.08 8.37L10.08 8.37Q10.08 9.35 9.77 10.20L9.77 10.20L9.77 10.20Q9.45 11.05 8.86 11.68L8.86 11.68L8.86 11.68Q8.26 12.30 7.40 12.67L7.40 12.67L7.40 12.67Q6.53 13.03 5.41 13.03L5.41 13.03L5.41 13.03Q4.27 13.03 3.39 12.67L3.39 12.67L3.39 12.67Q2.51 12.32 1.91 11.69L1.91 11.69L1.91 11.69Q1.31 11.07 0.99 10.22L0.99 10.22L0.99 10.22Q0.68 9.37 0.68 8.37L0.68 8.37L0.68 8.37Q0.68 7.40 0.98 6.55L0.98 6.55L0.98 6.55Q1.29 5.71 1.89 5.08L1.89 5.08L1.89 5.08Q2.49 4.46 3.37 4.10L3.37 4.10L3.37 4.10Q4.25 3.74 5.39 3.74ZM5.38 5.07L5.38 5.07L5.38 5.07Q4.79 5.07 4.37 5.29L4.37 5.29L4.37 5.29Q3.95 5.52 3.68 5.94L3.68 5.94L3.68 5.94Q3.41 6.37 3.28 6.98L3.28 6.98L3.28 6.98Q3.16 7.59 3.16 8.36L3.16 8.36L3.16 8.36Q3.16 9.16 3.29 9.78L3.29 9.78L3.29 9.78Q3.43 10.40 3.71 10.83L3.71 10.83L3.71 10.83Q3.98 11.26 4.40 11.48L4.40 11.48L4.40 11.48Q4.81 11.70 5.38 11.70L5.38 11.70L5.38 11.70Q5.95 11.70 6.37 11.47L6.37 11.47L6.37 11.47Q6.79 11.25 7.06 10.81L7.06 10.81L7.06 10.81Q7.33 10.38 7.47 9.77L7.47 9.77L7.47 9.77Q7.60 9.15 7.60 8.37L7.60 8.37L7.60 8.37Q7.60 6.77 7.05 5.92L7.05 5.92L7.05 5.92Q6.51 5.07 5.38 5.07ZM16.70 3.90L16.58 5.56L15.84 5.56L15.84 5.56Q15.80 5.24 15.61 5.03L15.61 5.03L15.61 5.03Q15.42 4.82 15.07 4.82L15.07 4.82L15.07 4.82Q14.77 4.82 14.60 4.93L14.60 4.93L14.60 4.93Q14.42 5.03 14.33 5.22L14.33 5.22L14.33 5.22Q14.25 5.41 14.22 5.68L14.22 5.68L14.22 5.68Q14.19 5.95 14.19 6.28L14.19 6.28L14.19 6.64L15.65 6.64L15.65 7.74L14.19 7.74L14.19 11.22L14.19 11.22Q14.19 11.42 14.27 11.52L14.27 11.52L14.27 11.52Q14.34 11.63 14.48 11.68L14.48 11.68L14.48 11.68Q14.62 11.73 14.83 11.74L14.83 11.74L14.83 11.74Q15.03 11.74 15.30 11.74L15.30 11.74L15.30 12.85L15.30 12.85Q14.90 12.85 14.48 12.84L14.48 12.84L14.48 12.84Q14.12 12.84 13.71 12.84L13.71 12.84L13.71 12.84Q13.29 12.84 12.91 12.84L12.91 12.84L12.91 12.84Q12.63 12.84 12.33 12.84L12.33 12.84L12.33 12.84Q12.03 12.84 11.78 12.84L11.78 12.84L11.78 12.84Q11.48 12.85 11.20 12.85L11.20 12.85L11.20 12.33L11.20 12.33Q11.20 12.22 11.20 12.13L11.20 12.13L11.20 12.13Q11.20 12.03 11.20 11.95L11.20 11.95L11.20 11.95Q11.20 11.87 11.20 11.81L11.20 11.81L11.20 11.81Q11.20 11.76 11.20 11.74L11.20 11.74L11.20 11.74Q11.48 11.74 11.65 11.73L11.65 11.73L11.65 11.73Q11.83 11.72 11.93 11.66L11.93 11.66L11.93 11.66Q12.02 11.61 12.06 11.50L12.06 11.50L12.06 11.50Q12.10 11.39 12.10 11.20L12.10 11.20L12.10 7.74L11.13 7.74L11.13 6.64L12.10 6.64L12.10 6.21L12.10 6.21Q12.10 4.94 12.77 4.33L12.77 4.33L12.77 4.33Q13.45 3.71 14.75 3.71L14.75 3.71L14.75 3.71Q14.98 3.71 15.23 3.73L15.23 3.73L15.23 3.73Q15.48 3.74 15.73 3.76L15.73 3.76L15.73 3.76Q15.98 3.79 16.23 3.82L16.23 3.82L16.23 3.82Q16.47 3.86 16.70 3.90L16.70 3.90ZM21.79 3.90L21.67 5.56L20.93 5.56L20.93 5.56Q20.90 5.24 20.70 5.03L20.70 5.03L20.70 5.03Q20.51 4.82 20.17 4.82L20.17 4.82L20.17 4.82Q19.87 4.82 19.69 4.93L19.69 4.93L19.69 4.93Q19.52 5.03 19.43 5.22L19.43 5.22L19.43 5.22Q19.34 5.41 19.31 5.68L19.31 5.68L19.31 5.68Q19.28 5.95 19.28 6.28L19.28 6.28L19.28 6.64L20.74 6.64L20.74 7.74L19.28 7.74L19.28 11.22L19.28 11.22Q19.28 11.42 19.36 11.52L19.36 11.52L19.36 11.52Q19.43 11.63 19.57 11.68L19.57 11.68L19.57 11.68Q19.71 11.73 19.92 11.74L19.92 11.74L19.92 11.74Q20.13 11.74 20.39 11.74L20.39 11.74L20.39 12.85L20.39 12.85Q19.99 12.85 19.57 12.84L19.57 12.84L19.57 12.84Q19.22 12.84 18.80 12.84L18.80 12.84L18.80 12.84Q18.38 12.84 18.00 12.84L18.00 12.84L18.00 12.84Q17.73 12.84 17.42 12.84L17.42 12.84L17.42 12.84Q17.12 12.84 16.87 12.84L16.87 12.84L16.87 12.84Q16.58 12.85 16.29 12.85L16.29 12.85L16.29 12.33L16.29 12.33Q16.29 12.22 16.29 12.13L16.29 12.13L16.29 12.13Q16.29 12.03 16.29 11.95L16.29 11.95L16.29 11.95Q16.30 11.87 16.30 11.81L16.30 11.81L16.30 11.81Q16.30 11.76 16.30 11.74L16.30 11.74L16.30 11.74Q16.57 11.74 16.74 11.73L16.74 11.73L16.74 11.73Q16.92 11.72 17.02 11.66L17.02 11.66L17.02 11.66Q17.12 11.61 17.15 11.50L17.15 11.50L17.15 11.50Q17.19 11.39 17.19 11.20L17.19 11.20L17.19 7.74L16.22 7.74L16.22 6.64L17.19 6.64L17.19 6.21L17.19 6.21Q17.19 4.94 17.87 4.33L17.87 4.33L17.87 4.33Q18.54 3.71 19.84 3.71L19.84 3.71L19.84 3.71Q20.07 3.71 20.32 3.73L20.32 3.73L20.32 3.73Q20.57 3.74 20.82 3.76L20.82 3.76L20.82 3.76Q21.08 3.79 21.32 3.82L21.32 3.82L21.32 3.82Q21.57 3.86 21.79 3.90L21.79 3.90ZM28.49 9.96L28.12 10.01L23.47 10.01L23.47 10.01Q23.47 10.99 23.95 11.45L23.95 11.45L23.95 11.45Q24.42 11.92 25.24 11.92L25.24 11.92L25.24 11.92Q25.82 11.92 26.22 11.65L26.22 11.65L26.22 11.65Q26.62 11.38 26.79 11.01L26.79 11.01L28.35 11.13L28.35 11.13Q28.08 12.07 27.22 12.54L27.22 12.54L27.22 12.54Q26.37 13.01 25.08 13.01L25.08 13.01L25.08 13.01Q24.14 13.01 23.44 12.76L23.44 12.76L23.44 12.76Q22.74 12.52 22.28 12.10L22.28 12.10L22.28 12.10Q21.81 11.68 21.58 11.08L21.58 11.08L21.58 11.08Q21.36 10.48 21.36 9.77L21.36 9.77L21.36 9.77Q21.36 9.01 21.61 8.39L21.61 8.39L21.61 8.39Q21.87 7.78 22.34 7.35L22.34 7.35L22.34 7.35Q22.81 6.92 23.47 6.69L23.47 6.69L23.47 6.69Q24.14 6.45 24.95 6.45L24.95 6.45L24.95 6.45Q25.74 6.45 26.39 6.68L26.39 6.68L26.39 6.68Q27.04 6.90 27.50 7.34L27.50 7.34L27.50 7.34Q27.97 7.78 28.23 8.44L28.23 8.44L28.23 8.44Q28.49 9.09 28.49 9.96L28.49 9.96ZM26.53 9.12L26.53 9.13L26.53 9.08L26.53 9.08Q26.53 9.06 26.53 9.03L26.53 9.03L26.53 9.03Q26.52 9.01 26.52 8.98L26.52 8.98L26.52 8.98Q26.46 8.26 26.07 7.86L26.07 7.86L26.07 7.86Q25.68 7.46 25.05 7.46L25.05 7.46L25.05 7.46Q24.34 7.46 23.94 7.90L23.94 7.90L23.94 7.90Q23.54 8.35 23.49 9.12L23.49 9.12L26.53 9.12ZM29.29 12.85L29.29 12.85L29.29 12.85Q29.29 12.84 29.29 12.75L29.29 12.75L29.29 12.75Q29.29 12.67 29.29 12.55L29.29 12.55L29.29 12.55Q29.29 12.43 29.29 12.30L29.29 12.30L29.29 12.30Q29.29 12.16 29.29 12.04L29.29 12.04L29.29 12.04Q29.29 11.93 29.29 11.85L29.29 11.85L29.29 11.85Q29.29 11.76 29.29 11.74L29.29 11.74L29.29 11.74Q29.58 11.74 29.76 11.73L29.76 11.73L29.76 11.73Q29.95 11.72 30.05 11.66L30.05 11.66L30.05 11.66Q30.15 11.61 30.19 11.50L30.19 11.50L30.19 11.50Q30.23 11.39 30.23 11.19L30.23 11.19L30.23 8.09L30.23 8.09Q30.23 7.96 30.17 7.89L30.17 7.89L30.17 7.89Q30.12 7.81 30.01 7.78L30.01 7.78L30.01 7.78Q29.89 7.75 29.72 7.75L29.72 7.75L29.72 7.75Q29.55 7.74 29.33 7.74L29.33 7.74L29.33 6.64L29.33 6.64Q29.62 6.64 29.89 6.65L29.89 6.65L29.89 6.65Q30.15 6.65 30.40 6.65L30.40 6.65L30.40 6.65Q30.87 6.65 31.32 6.64L31.32 6.64L31.32 6.64Q31.76 6.64 32.25 6.62L32.25 6.62L32.25 7.64L32.25 7.64Q32.44 7.42 32.70 7.22L32.70 7.22L32.70 7.22Q32.95 7.01 33.26 6.86L33.26 6.86L33.26 6.86Q33.56 6.71 33.93 6.61L33.93 6.61L33.93 6.61Q34.29 6.52 34.70 6.51L34.70 6.51L34.70 6.51Q35.28 6.51 35.72 6.65L35.72 6.65L35.72 6.65Q36.16 6.79 36.46 7.10L36.46 7.10L36.46 7.10Q36.76 7.41 36.91 7.90L36.91 7.90L36.91 7.90Q37.06 8.38 37.06 9.06L37.06 9.06L37.06 11.33L37.06 11.33Q37.06 11.50 37.11 11.59L37.11 11.59L37.11 11.59Q37.17 11.67 37.27 11.70L37.27 11.70L37.27 11.70Q37.38 11.74 37.54 11.74L37.54 11.74L37.54 11.74Q37.69 11.74 37.90 11.74L37.90 11.74L37.90 12.85L37.90 12.85Q37.69 12.85 37.49 12.85L37.49 12.85L37.49 12.85Q37.29 12.85 37.08 12.85L37.08 12.85L37.08 12.85Q36.87 12.84 36.63 12.84L36.63 12.84L36.63 12.84Q36.39 12.84 36.10 12.84L36.10 12.84L36.10 12.84Q35.57 12.84 35.09 12.84L35.09 12.84L35.09 12.84Q34.62 12.85 34.15 12.85L34.15 12.85L34.15 11.74L34.15 11.74Q34.45 11.74 34.62 11.73L34.62 11.73L34.62 11.73Q34.79 11.71 34.86 11.66L34.86 11.66L34.86 11.66Q34.94 11.60 34.95 11.50L34.95 11.50L34.95 11.50Q34.97 11.40 34.97 11.22L34.97 11.22L34.97 9.35L34.97 9.35Q34.97 8.98 34.91 8.69L34.91 8.69L34.91 8.69Q34.86 8.40 34.73 8.21L34.73 8.21L34.73 8.21Q34.60 8.02 34.38 7.92L34.38 7.92L34.38 7.92Q34.16 7.82 33.84 7.82L33.84 7.82L33.84 7.82Q33.56 7.82 33.34 7.88L33.34 7.88L33.34 7.88Q33.12 7.94 32.95 8.03L32.95 8.03L32.95 8.03Q32.77 8.12 32.64 8.24L32.64 8.24L32.64 8.24Q32.51 8.37 32.42 8.49L32.42 8.49L32.42 8.49Q32.35 8.71 32.33 8.97L32.33 8.97L32.33 8.97Q32.31 9.24 32.31 9.54L32.31 9.54L32.31 11.22L32.31 11.22Q32.31 11.42 32.37 11.53L32.37 11.53L32.37 11.53Q32.42 11.63 32.54 11.68L32.54 11.68L32.54 11.68Q32.66 11.72 32.84 11.73L32.84 11.73L32.84 11.73Q33.02 11.74 33.28 11.74L33.28 11.74L33.28 12.85L33.28 12.85Q33.03 12.85 32.80 12.85L32.80 12.85L32.80 12.85Q32.57 12.85 32.32 12.85L32.32 12.85L32.32 12.85Q32.07 12.84 31.79 12.84L31.79 12.84L31.79 12.84Q31.51 12.84 31.18 12.84L31.18 12.84L31.18 12.84Q30.61 12.84 30.17 12.84L30.17 12.84L30.17 12.84Q29.73 12.85 29.29 12.85ZM47.01 3.74L47.01 3.74L47.01 3.74Q48.14 3.74 49.01 4.09L49.01 4.09L49.01 4.09Q49.88 4.45 50.48 5.08L50.48 5.08L50.48 5.08Q51.08 5.70 51.39 6.55L51.39 6.55L51.39 6.55Q51.70 7.40 51.70 8.37L51.70 8.37L51.70 8.37Q51.70 9.35 51.39 10.20L51.39 10.20L51.39 10.20Q51.08 11.05 50.48 11.68L50.48 11.68L50.48 11.68Q49.89 12.30 49.02 12.67L49.02 12.67L49.02 12.67Q48.15 13.03 47.03 13.03L47.03 13.03L47.03 13.03Q45.90 13.03 45.01 12.67L45.01 12.67L45.01 12.67Q44.13 12.32 43.53 11.69L43.53 11.69L43.53 11.69Q42.93 11.07 42.62 10.22L42.62 10.22L42.62 10.22Q42.30 9.37 42.30 8.37L42.30 8.37L42.30 8.37Q42.30 7.40 42.61 6.55L42.61 6.55L42.61 6.55Q42.92 5.71 43.51 5.08L43.51 5.08L43.51 5.08Q44.11 4.46 44.99 4.10L44.99 4.10L44.99 4.10Q45.87 3.74 47.01 3.74ZM47.00 5.07L47.00 5.07L47.00 5.07Q46.42 5.07 46.00 5.29L46.00 5.29L46.00 5.29Q45.58 5.52 45.31 5.94L45.31 5.94L45.31 5.94Q45.04 6.37 44.91 6.98L44.91 6.98L44.91 6.98Q44.78 7.59 44.78 8.36L44.78 8.36L44.78 8.36Q44.78 9.16 44.92 9.78L44.92 9.78L44.92 9.78Q45.06 10.40 45.33 10.83L45.33 10.83L45.33 10.83Q45.60 11.26 46.02 11.48L46.02 11.48L46.02 11.48Q46.44 11.70 47.00 11.70L47.00 11.70L47.00 11.70Q47.58 11.70 48.00 11.47L48.00 11.47L48.00 11.47Q48.42 11.25 48.69 10.81L48.69 10.81L48.69 10.81Q48.96 10.38 49.09 9.77L49.09 9.77L49.09 9.77Q49.23 9.15 49.23 8.37L49.23 8.37L49.23 8.37Q49.23 6.77 48.68 5.92L48.68 5.92L48.68 5.92Q48.13 5.07 47.00 5.07ZM58.32 3.90L58.20 5.56L57.46 5.56L57.46 5.56Q57.43 5.24 57.23 5.03L57.23 5.03L57.23 5.03Q57.04 4.82 56.70 4.82L56.70 4.82L56.70 4.82Q56.40 4.82 56.22 4.93L56.22 4.93L56.22 4.93Q56.05 5.03 55.96 5.22L55.96 5.22L55.96 5.22Q55.87 5.41 55.84 5.68L55.84 5.68L55.84 5.68Q55.82 5.95 55.82 6.28L55.82 6.28L55.82 6.64L57.27 6.64L57.27 7.74L55.82 7.74L55.82 11.22L55.82 11.22Q55.82 11.42 55.89 11.52L55.89 11.52L55.89 11.52Q55.97 11.63 56.11 11.68L56.11 11.68L56.11 11.68Q56.25 11.73 56.45 11.74L56.45 11.74L56.45 11.74Q56.66 11.74 56.92 11.74L56.92 11.74L56.92 12.85L56.92 12.85Q56.52 12.85 56.10 12.84L56.10 12.84L56.10 12.84Q55.75 12.84 55.33 12.84L55.33 12.84L55.33 12.84Q54.91 12.84 54.53 12.84L54.53 12.84L54.53 12.84Q54.26 12.84 53.96 12.84L53.96 12.84L53.96 12.84Q53.66 12.84 53.40 12.84L53.40 12.84L53.40 12.84Q53.11 12.85 52.82 12.85L52.82 12.85L52.82 12.33L52.82 12.33Q52.82 12.22 52.82 12.13L52.82 12.13L52.82 12.13Q52.82 12.03 52.82 11.95L52.82 11.95L52.82 11.95Q52.83 11.87 52.83 11.81L52.83 11.81L52.83 11.81Q52.83 11.76 52.83 11.74L52.83 11.74L52.83 11.74Q53.10 11.74 53.28 11.73L53.28 11.73L53.28 11.73Q53.45 11.72 53.55 11.66L53.55 11.66L53.55 11.66Q53.65 11.61 53.69 11.50L53.69 11.50L53.69 11.50Q53.72 11.39 53.72 11.20L53.72 11.20L53.72 7.74L52.75 7.74L52.75 6.64L53.72 6.64L53.72 6.21L53.72 6.21Q53.72 4.94 54.40 4.33L54.40 4.33L54.40 4.33Q55.07 3.71 56.38 3.71L56.38 3.71L56.38 3.71Q56.60 3.71 56.85 3.73L56.85 3.73L56.85 3.73Q57.10 3.74 57.35 3.76L57.35 3.76L57.35 3.76Q57.61 3.79 57.85 3.82L57.85 3.82L57.85 3.82Q58.10 3.86 58.32 3.90L58.32 3.90ZM63.42 3.90L63.29 5.56L62.56 5.56L62.56 5.56Q62.52 5.24 62.33 5.03L62.33 5.03L62.33 5.03Q62.13 4.82 61.79 4.82L61.79 4.82L61.79 4.82Q61.49 4.82 61.31 4.93L61.31 4.93L61.31 4.93Q61.14 5.03 61.05 5.22L61.05 5.22L61.05 5.22Q60.96 5.41 60.94 5.68L60.94 5.68L60.94 5.68Q60.91 5.95 60.91 6.28L60.91 6.28L60.91 6.64L62.36 6.64L62.36 7.74L60.91 7.74L60.91 11.22L60.91 11.22Q60.91 11.42 60.98 11.52L60.98 11.52L60.98 11.52Q61.06 11.63 61.20 11.68L61.20 11.68L61.20 11.68Q61.34 11.73 61.54 11.74L61.54 11.74L61.54 11.74Q61.75 11.74 62.02 11.74L62.02 11.74L62.02 12.85L62.02 12.85Q61.61 12.85 61.20 12.84L61.20 12.84L61.20 12.84Q60.84 12.84 60.42 12.84L60.42 12.84L60.42 12.84Q60.01 12.84 59.62 12.84L59.62 12.84L59.62 12.84Q59.35 12.84 59.05 12.84L59.05 12.84L59.05 12.84Q58.75 12.84 58.50 12.84L58.50 12.84L58.50 12.84Q58.20 12.85 57.91 12.85L57.91 12.85L57.91 12.33L57.91 12.33Q57.91 12.22 57.91 12.13L57.91 12.13L57.91 12.13Q57.91 12.03 57.92 11.95L57.92 11.95L57.92 11.95Q57.92 11.87 57.92 11.81L57.92 11.81L57.92 11.81Q57.92 11.76 57.92 11.74L57.92 11.74L57.92 11.74Q58.19 11.74 58.37 11.73L58.37 11.73L58.37 11.73Q58.54 11.72 58.64 11.66L58.64 11.66L58.64 11.66Q58.74 11.61 58.78 11.50L58.78 11.50L58.78 11.50Q58.82 11.39 58.82 11.20L58.82 11.20L58.82 7.74L57.85 7.74L57.85 6.64L58.82 6.64L58.82 6.21L58.82 6.21Q58.82 4.94 59.49 4.33L59.49 4.33L59.49 4.33Q60.16 3.71 61.47 3.71L61.47 3.71L61.47 3.71Q61.69 3.71 61.94 3.73L61.94 3.73L61.94 3.73Q62.19 3.74 62.45 3.76L62.45 3.76L62.45 3.76Q62.70 3.79 62.95 3.82L62.95 3.82L62.95 3.82Q63.19 3.86 63.42 3.90L63.42 3.90ZM64.59 3.73L64.59 3.73L64.59 3.73Q64.85 3.73 65.06 3.78L65.06 3.78L65.06 3.78Q65.28 3.84 65.44 3.95L65.44 3.95L65.44 3.95Q65.60 4.05 65.69 4.21L65.69 4.21L65.69 4.21Q65.78 4.37 65.78 4.56L65.78 4.56L65.78 4.56Q65.78 4.94 65.46 5.17L65.46 5.17L65.46 5.17Q65.14 5.41 64.59 5.41L64.59 5.41L64.59 5.41Q64.06 5.41 63.74 5.20L63.74 5.20L63.74 5.20Q63.42 4.98 63.42 4.56L63.42 4.56L63.42 4.56Q63.42 4.18 63.74 3.95L63.74 3.95L63.74 3.95Q64.06 3.73 64.59 3.73ZM65.76 6.62L65.76 11.12L65.76 11.12Q65.76 11.33 65.79 11.45L65.79 11.45L65.79 11.45Q65.82 11.57 65.91 11.64L65.91 11.64L65.91 11.64Q65.99 11.70 66.15 11.72L66.15 11.72L66.15 11.72Q66.31 11.74 66.56 11.74L66.56 11.74L66.56 12.85L66.56 12.85Q66.33 12.85 66.05 12.85L66.05 12.85L66.05 12.85Q65.76 12.84 65.47 12.84L65.47 12.84L65.47 12.84Q65.18 12.84 64.91 12.84L64.91 12.84L64.91 12.84Q64.64 12.84 64.44 12.84L64.44 12.84L64.44 12.84Q64.19 12.84 63.98 12.84L63.98 12.84L63.98 12.84Q63.77 12.84 63.57 12.84L63.57 12.84L63.57 12.84Q63.38 12.84 63.20 12.85L63.20 12.85L63.20 12.85Q63.01 12.85 62.82 12.85L62.82 12.85L62.82 11.74L62.82 11.74Q63.11 11.74 63.28 11.73L63.28 11.73L63.28 11.73Q63.44 11.71 63.53 11.65L63.53 11.65L63.53 11.65Q63.62 11.58 63.65 11.46L63.65 11.46L63.65 11.46Q63.68 11.33 63.68 11.12L63.68 11.12L63.68 8.12L63.68 8.12Q63.68 7.98 63.63 7.90L63.63 7.90L63.63 7.90Q63.58 7.83 63.48 7.79L63.48 7.79L63.48 7.79Q63.38 7.75 63.22 7.75L63.22 7.75L63.22 7.75Q63.07 7.74 62.86 7.74L62.86 7.74L62.86 7.74Q62.86 7.46 62.86 7.19L62.86 7.19L62.86 7.19Q62.86 6.92 62.86 6.64L62.86 6.64L62.86 6.64Q63.15 6.64 63.41 6.65L63.41 6.65L63.41 6.65Q63.67 6.65 63.92 6.65L63.92 6.65L63.92 6.65Q64.36 6.65 64.82 6.64L64.82 6.64L64.82 6.64Q65.28 6.64 65.76 6.62L65.76 6.62ZM73.90 6.70L73.90 9.02L72.71 9.02L72.71 9.02Q72.61 8.26 72.23 7.90L72.23 7.90L72.23 7.90Q71.85 7.54 71.24 7.54L71.24 7.54L71.24 7.54Q70.85 7.54 70.55 7.70L70.55 7.70L70.55 7.70Q70.25 7.86 70.04 8.16L70.04 8.16L70.04 8.16Q69.83 8.45 69.72 8.86L69.72 8.86L69.72 8.86Q69.62 9.28 69.62 9.78L69.62 9.78L69.62 9.78Q69.62 10.29 69.73 10.66L69.73 10.66L69.73 10.66Q69.84 11.03 70.06 11.32L70.06 11.32L70.06 11.32Q70.27 11.61 70.58 11.76L70.58 11.76L70.58 11.76Q70.89 11.92 71.29 11.92L71.29 11.92L71.29 11.92Q71.87 11.92 72.22 11.58L72.22 11.58L72.22 11.58Q72.57 11.25 72.67 10.70L72.67 10.70L74.13 10.88L74.13 10.88Q74.03 11.40 73.77 11.81L73.77 11.81L73.77 11.81Q73.51 12.21 73.11 12.46L73.11 12.46L73.11 12.46Q72.71 12.71 72.18 12.86L72.18 12.86L72.18 12.86Q71.65 13.01 71.02 13.01L71.02 13.01L71.02 13.01Q70.21 13.01 69.56 12.78L69.56 12.78L69.56 12.78Q68.90 12.54 68.44 12.14L68.44 12.14L68.44 12.14Q67.98 11.74 67.72 11.14L67.72 11.14L67.72 11.14Q67.47 10.53 67.47 9.79L67.47 9.79L67.47 9.79Q67.47 9.07 67.73 8.47L67.73 8.47L67.73 8.47Q67.98 7.87 68.42 7.43L68.42 7.43L68.42 7.43Q68.86 7 69.44 6.76L69.44 6.76L69.44 6.76Q70.03 6.51 70.69 6.51L70.69 6.51L70.69 6.51Q71.20 6.51 71.69 6.65L71.69 6.65L71.69 6.65Q72.18 6.79 72.57 7.14L72.57 7.14L72.65 6.63L72.65 6.63Q72.78 6.64 72.94 6.64L72.94 6.64L72.94 6.64Q73.10 6.65 73.26 6.66L73.26 6.66L73.26 6.66Q73.43 6.67 73.60 6.68L73.60 6.68L73.60 6.68Q73.76 6.69 73.90 6.70L73.90 6.70ZM82.30 9.96L81.94 10.01L77.29 10.01L77.29 10.01Q77.29 10.99 77.77 11.45L77.77 11.45L77.77 11.45Q78.24 11.92 79.06 11.92L79.06 11.92L79.06 11.92Q79.64 11.92 80.04 11.65L80.04 11.65L80.04 11.65Q80.44 11.38 80.61 11.01L80.61 11.01L82.17 11.13L82.17 11.13Q81.89 12.07 81.04 12.54L81.04 12.54L81.04 12.54Q80.19 13.01 78.90 13.01L78.90 13.01L78.90 13.01Q77.96 13.01 77.26 12.76L77.26 12.76L77.26 12.76Q76.56 12.52 76.10 12.10L76.10 12.10L76.10 12.10Q75.63 11.68 75.40 11.08L75.40 11.08L75.40 11.08Q75.17 10.48 75.17 9.77L75.17 9.77L75.17 9.77Q75.17 9.01 75.43 8.39L75.43 8.39L75.43 8.39Q75.69 7.78 76.16 7.35L76.16 7.35L76.16 7.35Q76.63 6.92 77.29 6.69L77.29 6.69L77.29 6.69Q77.96 6.45 78.77 6.45L78.77 6.45L78.77 6.45Q79.56 6.45 80.21 6.68L80.21 6.68L80.21 6.68Q80.86 6.90 81.32 7.34L81.32 7.34L81.32 7.34Q81.79 7.78 82.04 8.44L82.04 8.44L82.04 8.44Q82.30 9.09 82.30 9.96L82.30 9.96ZM80.35 9.12L80.35 9.13L80.35 9.08L80.35 9.08Q80.35 9.06 80.35 9.03L80.35 9.03L80.35 9.03Q80.34 9.01 80.34 8.98L80.34 8.98L80.34 8.98Q80.28 8.26 79.89 7.86L79.89 7.86L79.89 7.86Q79.50 7.46 78.87 7.46L78.87 7.46L78.87 7.46Q78.16 7.46 77.76 7.90L77.76 7.90L77.76 7.90Q77.36 8.35 77.31 9.12L77.31 9.12L80.35 9.12Z"></path></g><!----><!----></svg>